{
	"asset":{
		"generator":"Khronos glTF Blender I/O v3.6.27",
		"version":"2.0"
	},
	"scene":0,
	"scenes":[
		{
			"name":"Scene",
			"nodes":[
				0
			]
		}
	],
	"nodes":[
		{
			"mesh":0,
			"name":"Model"
		}
	],
	"meshes":[
		{
			"name":"Cube.004",
			"primitives":[
				{
					"attributes":{
						"POSITION":0,
						"NORMAL":1,
						"TEXCOORD_0":2
					},
					"indices":3
				}
			]
		}
	],
	"accessors":[
		{
			"bufferView":0,
			"componentType":5126,
			"count":5704,
			"max":[
				0.40064337849617004,
				0.06336918473243713,
				0.4708363115787506
			],
			"min":[
				-0.40064337849617004,
				-0.34934693574905396,
				-0.47408074140548706
			],
			"type":"VEC3"
		},
		{
			"bufferView":1,
			"componentType":5126,
			"count":5704,
			"type":"VEC3"
		},
		{
			"bufferView":2,
			"componentType":5126,
			"count":5704,
			"type":"VEC2"
		},
		{
			"bufferView":3,
			"componentType":5123,
			"count":15876,
			"type":"SCALAR"
		}
	],
	"bufferViews":[
		{
			"buffer":0,
			"byteLength":68448,
			"byteOffset":0,
			"target":34962
		},
		{
			"buffer":0,
			"byteLength":68448,
			"byteOffset":68448,
			"target":34962
		},
		{
			"buffer":0,
			"byteLength":45632,
			"byteOffset":136896,
			"target":34962
		},
		{
			"buffer":0,
			"byteLength":31752,
			"byteOffset":182528,
			"target":34963
		}
	],
	"buffers":[
		{
			"byteLength":214280,
			"uri":"data:application/octet-stream;base64,"
		}
	]
}
